<?xml version="1.0" encoding="UTF-8" standalone="no"?>
<!-- Created with Inkscape (http://www.inkscape.org/) -->
<svg xmlns:dc="http://purl.org/dc/elements/1.1/" xmlns:cc="http://creativecommons.org/ns#" xmlns:rdf="http://www.w3.org/1999/02/22-rdf-syntax-ns#" xmlns:svg="http://www.w3.org/2000/svg" xmlns="http://www.w3.org/2000/svg" xmlns:sodipodi="http://sodipodi.sourceforge.net/DTD/sodipodi-0.dtd" xmlns:inkscape="http://www.inkscape.org/namespaces/inkscape" width="400" height="229.19907" id="svg2551" sodipodi:version="0.32" inkscape:version="0.46" version="1.0" sodipodi:docname="Logo Bell Canada.svg" inkscape:output_extension="org.inkscape.output.svg.inkscape">
  <defs id="defs2553">
    <inkscape:perspective sodipodi:type="inkscape:persp3d" inkscape:vp_x="0 : 526.18109 : 1" inkscape:vp_y="0 : 1000 : 0" inkscape:vp_z="744.09448 : 526.18109 : 1" inkscape:persp3d-origin="372.04724 : 350.78739 : 1" id="perspective2559"/>
  </defs>
  <sodipodi:namedview id="base" pagecolor="#ffffff" bordercolor="#666666" borderopacity="1.0" inkscape:pageopacity="0.0" inkscape:pageshadow="2" inkscape:zoom="0.35" inkscape:cx="375" inkscape:cy="520" inkscape:document-units="px" inkscape:current-layer="layer1" showgrid="false" inkscape:window-width="1280" inkscape:window-height="968" inkscape:window-x="-4" inkscape:window-y="-4"/>
  <metadata id="metadata2556">
    <rdf:RDF>
      <cc:Work rdf:about="">
        <dc:format>image/svg+xml</dc:format>
        <dc:type rdf:resource="http://purl.org/dc/dcmitype/StillImage"/>
      </cc:Work>
    </rdf:RDF>
  </metadata>
  <g inkscape:label="Calque 1" inkscape:groupmode="layer" id="layer1" transform="translate(-134.2857,-299.55144)">
    <path style="fill:#0066a4;fill-opacity:1" d="M 357.5847,528.67762 C 346.4656,528.12551 336.509,525.96214 327.5704,522.15606 C 325.0276,521.0733 320.6362,518.78414 318.3902,517.37054 C 304.1646,508.41727 294.7122,495.1272 290.2394,477.79072 C 289.9118,476.52103 289.6237,475.46217 289.5993,475.43769 C 289.5748,475.41321 289.3032,476.18339 288.9957,477.1492 C 287.3166,482.42294 284.7251,487.87181 281.6351,492.6252 C 271.1463,508.76035 253.3946,519.51254 231.1072,523.22997 C 220.6967,524.96638 211.194,525.22308 160.8902,525.12672 L 134.2857,525.07577 L 134.2857,412.3136 L 134.2857,299.55144 L 165.0693,299.6203 C 195.8149,299.68906 198.2049,299.72688 205.1066,300.25381 C 225.128,301.78238 238.7544,306.27463 249.5579,314.90817 C 262.0609,324.89994 268.8893,340.70906 268.0094,357.62748 C 267.2138,372.92493 260.403,385.88678 248.1478,395.42648 C 247.3242,396.0676 246.7396,396.61885 246.8486,396.65147 C 251.4767,398.03591 258.1114,401.02526 262.6814,403.78514 C 275.1142,411.29336 284.5898,422.35985 288.922,434.43135 C 289.2748,435.41436 289.6136,436.27756 289.6749,436.34957 C 289.7362,436.42159 289.8626,436.18651 289.9558,435.82718 C 290.3931,434.14121 291.414,430.93472 292.1596,428.90521 C 295.3281,420.28078 300.0564,412.202 306.049,405.17387 C 308.9631,401.7562 313.8645,397.19236 317.6351,394.38562 C 332.7615,383.12611 351.9959,378.40578 373.0917,380.776 C 387.281,382.37027 399.2247,387.09169 409.2396,395.06559 C 411.7995,397.10378 416.4703,401.77724 418.5216,404.35297 C 424.5847,411.96588 428.5779,419.95478 430.8564,429.03039 C 431.1872,430.34774 431.4896,431.45738 431.5285,431.49624 C 431.5673,431.53511 431.5991,402.13779 431.5991,366.1689 L 431.5991,300.77088 L 450.9275,300.77088 L 470.2559,300.77088 L 470.2559,412.93506 L 470.2559,525.09924 L 450.9275,525.09924 L 431.5991,525.09924 L 431.5991,495.47238 L 431.5991,465.84551 L 379.7866,465.84551 L 327.9741,465.84551 L 328.0726,467.02705 C 328.5742,473.04099 331.1154,479.71572 334.7392,484.53724 C 340.6204,492.36221 349.2571,496.98744 360.7782,498.48187 C 363.7133,498.86259 371.1873,498.86223 374.2857,498.48121 C 383.4188,497.35809 391.3245,494.63812 398.4418,490.17024 C 399.4806,489.51815 400.7459,488.6805 401.2536,488.30879 L 402.1767,487.63297 L 403.4274,489.08999 C 404.1153,489.89135 408.1587,494.64402 412.4127,499.65148 C 416.6668,504.65894 420.2893,508.91394 420.4628,509.10703 L 420.7782,509.45811 L 419.9573,510.19366 C 418.5238,511.47815 415.7749,513.57442 413.5386,515.08856 C 401.9808,522.91377 387.6853,527.38174 370.5543,528.52305 C 367.2736,528.74163 360.4997,528.82235 357.5847,528.67762 z M 211.3006,493.0295 C 213.7323,492.81444 216.6129,492.45572 218.017,492.19314 C 229.705,490.00736 238.3011,484.89009 243.6227,476.9499 C 250.3398,466.92771 251.3915,451.77457 246.1336,440.77088 C 244.5893,437.53899 242.7425,434.90091 240.1921,432.28399 C 235.9324,427.91305 230.8913,424.87702 224.2857,422.70432 C 219.8637,421.24982 214.9264,420.43482 206.9723,419.84642 C 205.0851,419.70682 200.1565,419.65296 189.2111,419.65235 L 174.0618,419.65148 L 174.0236,456.29327 C 174.0025,476.44626 174.0192,493.02427 174.0607,493.1333 C 174.123,493.29711 177.2014,493.31965 191.7855,493.26302 C 202.8625,493.22002 210.1297,493.13305 211.3006,493.0295 z M 394.9533,436.77835 C 394.3349,433.55341 393.2012,430.10171 391.8038,427.18879 C 388.5787,420.46617 384.0459,415.838 377.7167,412.80542 C 372.9473,410.52018 368.2359,409.5272 362.1961,409.53427 C 357.465,409.53981 353.6544,410.18572 349.7993,411.63557 C 339.8324,415.38399 332.6803,423.5255 329.4279,434.82527 C 329.1441,435.81123 328.8699,436.88069 328.8185,437.20187 L 328.7251,437.78581 L 361.9358,437.78581 L 395.1465,437.78581 L 394.9533,436.77835 z M 195.4051,389.28144 C 202.1764,388.76526 206.9487,387.56784 211.5991,385.21826 C 214.3643,383.8212 216.2178,382.53381 218.2172,380.62163 C 222.6018,376.42841 225.2432,371.13708 226.3014,364.4276 C 226.6329,362.32535 226.7563,357.78771 226.5389,355.68968 C 225.8498,349.0373 223.3107,343.58771 218.9617,339.42653 C 216.9478,337.49966 215.092,336.21036 212.3454,334.82991 C 205.0327,331.15457 196.9436,329.93933 180.5544,330.05387 L 174.0618,330.09924 L 174.0235,359.65148 C 174.0025,375.90521 174.0208,389.29723 174.0643,389.41153 C 174.1312,389.58741 175.6161,389.60562 183.7295,389.53003 C 189.0018,389.48091 194.2558,389.36905 195.4051,389.28144 z M 496.226,412.93506 L 496.226,300.77088 L 515.2558,300.77088 L 534.2857,300.77088 L 534.2857,412.93506 L 534.2857,525.09924 L 515.2558,525.09924 L 496.226,525.09924 L 496.226,412.93506 z" id="path2536"/>
  </g>
</svg>